<?xml version="1.0" standalone="no"?>
<!DOCTYPE svg PUBLIC "-//W3C//DTD SVG 20010904//EN"
 "http://www.w3.org/TR/2001/REC-SVG-20010904/DTD/svg10.dtd">
<svg version="1.0" xmlns="http://www.w3.org/2000/svg"
 width="976.000000pt" height="976.000000pt" viewBox="0 0 976.000000 976.000000"
 preserveAspectRatio="xMidYMid meet">
<metadata>
Created by potrace 1.14, written by Peter Selinger 2001-2017
</metadata>
<g transform="translate(0.000000,976.000000) scale(0.100000,-0.100000)"
fill="#000000" stroke="none">
<path d="M1998 9475 c-1 -1 -25 -5 -53 -9 -78 -9 -123 -18 -210 -41 -33 -8
-69 -17 -80 -20 -11 -3 -45 -14 -75 -26 -30 -11 -70 -26 -87 -32 -18 -6 -33
-14 -33 -19 0 -5 -4 -7 -9 -3 -5 3 -12 1 -16 -5 -4 -6 -11 -8 -16 -5 -5 4 -9
1 -9 -4 0 -6 -3 -10 -7 -9 -14 2 -127 -57 -214 -112 -63 -40 -186 -128 -210
-150 -9 -8 -40 -35 -69 -60 -67 -56 -140 -130 -205 -205 -27 -31 -57 -65 -65
-74 -34 -37 -100 -131 -100 -141 0 -6 -4 -8 -10 -5 -5 3 -10 1 -10 -5 0 -10
-48 -89 -61 -100 -3 -3 -9 -12 -12 -20 -4 -8 -23 -42 -43 -75 -19 -33 -62
-116 -95 -185 -33 -69 -64 -133 -70 -144 -6 -10 -13 -30 -15 -44 -3 -15 -9
-31 -13 -37 -7 -8 -48 -124 -58 -160 -17 -68 -39 -141 -43 -145 -3 -3 -6 -12
-6 -20 -2 -16 -9 -48 -19 -90 -4 -14 -8 -36 -10 -50 -2 -14 -4 -25 -5 -25 -2
0 -5 -13 -14 -65 -11 -61 -15 -83 -21 -145 -4 -33 -9 -67 -12 -75 -24 -72 -24
-724 1 -910 3 -19 7 -58 10 -85 3 -28 7 -57 10 -65 3 -8 8 -35 10 -60 3 -25 8
-58 11 -75 4 -16 8 -39 10 -50 7 -50 29 -151 34 -160 4 -5 7 -22 6 -37 0 -16
3 -28 8 -28 5 0 7 -6 4 -12 -2 -7 0 -21 5 -31 5 -10 12 -31 14 -45 7 -39 86
-305 94 -317 4 -5 13 -34 21 -62 7 -29 16 -53 21 -53 4 0 8 -7 8 -15 0 -15 58
-173 82 -225 7 -14 12 -29 13 -35 0 -5 3 -12 6 -15 4 -3 21 -39 39 -80 41 -96
237 -487 250 -500 3 -3 12 -18 20 -35 8 -16 17 -32 20 -35 3 -3 11 -16 18 -29
69 -122 95 -165 109 -179 7 -7 13 -20 13 -28 0 -8 7 -17 15 -20 8 -4 15 -10
15 -16 0 -5 18 -35 40 -67 21 -32 36 -61 33 -65 -4 -3 -1 -6 4 -6 6 0 25 -21
41 -47 41 -64 112 -166 120 -173 4 -3 12 -12 17 -21 25 -39 64 -96 81 -116 39
-45 69 -86 64 -88 -3 0 9 -14 25 -30 17 -17 41 -46 55 -65 33 -47 51 -69 77
-97 13 -13 23 -26 23 -28 0 -6 28 -41 68 -82 17 -19 32 -37 32 -39 0 -5 21
-29 78 -89 18 -19 31 -35 28 -35 -2 0 19 -25 47 -55 29 -30 65 -69 81 -87 16
-18 98 -106 182 -194 85 -89 165 -173 179 -188 13 -14 29 -26 35 -26 6 0 9 -4
6 -9 -4 -5 -2 -11 3 -13 5 -1 82 -73 172 -158 90 -85 186 -176 214 -202 27
-25 69 -64 92 -86 24 -22 43 -37 43 -35 0 3 15 -10 34 -29 19 -18 53 -49 76
-68 90 -75 114 -96 129 -112 8 -10 19 -18 23 -18 4 0 20 -12 36 -27 16 -16 38
-35 48 -43 96 -77 182 -146 196 -159 33 -31 48 -42 48 -36 0 3 11 -5 24 -19
13 -15 28 -26 34 -26 6 0 12 -4 14 -9 4 -11 136 -111 146 -111 4 0 13 -9 20
-20 7 -11 17 -20 22 -20 6 0 18 -7 28 -16 34 -32 242 -184 251 -184 5 0 11 -3
13 -7 4 -10 105 -86 135 -101 12 -7 27 -18 35 -24 25 -24 106 -78 116 -78 6 0
12 -3 14 -7 4 -9 74 -63 82 -63 3 0 34 -20 69 -45 36 -25 68 -45 71 -45 3 0
17 -10 30 -21 14 -12 34 -27 45 -33 12 -6 65 -39 119 -73 54 -35 104 -63 110
-63 7 0 12 -4 12 -9 0 -5 14 -14 30 -21 17 -7 30 -16 30 -20 0 -8 51 -34 63
-32 4 1 7 -2 7 -7 0 -24 43 -21 92 6 29 15 58 32 64 38 6 5 28 19 50 30 37 19
44 24 79 53 8 7 15 10 15 6 0 -3 15 5 34 20 19 14 39 26 45 26 6 0 11 4 11 10
0 5 11 12 25 16 14 3 25 9 25 13 0 3 16 15 35 25 19 11 35 23 35 28 0 4 7 8
15 8 8 0 24 9 35 20 11 11 22 20 25 20 8 0 182 119 200 136 8 8 15 12 15 7 0
-4 4 -3 8 2 4 6 34 28 67 50 32 22 66 45 75 52 8 7 71 52 140 102 171 123 170
123 201 149 15 12 31 22 37 22 6 0 12 4 14 9 2 5 35 32 73 62 39 29 72 55 75
58 3 4 32 26 65 50 33 25 64 51 68 58 4 7 12 13 17 13 6 0 18 8 28 17 32 31
75 65 110 90 19 12 31 23 26 23 -5 1 0 6 12 13 20 11 78 58 128 102 13 11 47
40 76 65 29 25 65 56 80 70 15 14 46 41 69 60 23 19 61 53 85 75 23 22 83 77
132 122 49 44 120 111 158 147 37 36 72 66 77 66 5 0 9 3 9 8 0 4 91 100 203
214 111 114 228 236 259 270 31 35 66 73 77 85 12 12 21 27 21 33 0 5 7 10 15
10 8 0 15 4 15 9 0 5 15 25 33 45 17 19 50 56 72 82 22 25 46 53 53 60 6 7 12
15 12 18 0 3 10 16 23 30 33 36 145 175 207 256 14 18 30 38 35 44 6 6 26 34
44 61 19 28 37 52 41 55 9 9 105 144 129 183 12 20 27 37 32 37 6 0 7 5 4 10
-3 6 -1 10 4 10 6 0 11 7 11 15 0 8 5 15 10 15 6 0 10 7 10 15 0 8 5 15 10 15
6 0 10 7 10 15 0 8 5 15 10 15 6 0 10 7 10 15 0 8 5 15 10 15 6 0 10 6 10 13
0 7 9 23 19 34 11 12 17 24 14 27 -4 3 -1 6 5 6 7 0 12 4 12 9 0 6 19 38 43
73 23 35 43 70 45 78 2 8 8 17 13 18 5 2 9 10 9 17 0 7 3 15 8 17 4 2 16 19
26 38 24 44 48 89 89 165 48 89 121 229 122 235 0 3 16 37 34 75 55 115 76
160 76 165 1 3 11 27 23 54 12 27 22 54 22 60 0 7 4 16 8 21 5 6 19 39 32 75
13 36 27 70 31 75 4 6 9 21 11 35 1 14 5 27 9 30 3 3 17 46 33 95 15 50 31 99
37 110 5 11 11 31 13 45 3 14 5 25 6 25 2 0 6 16 14 50 2 11 5 20 6 20 1 0 3
7 5 15 2 8 17 71 33 140 17 69 34 145 38 170 9 51 11 59 14 63 1 1 3 16 5 32
6 43 13 95 21 135 10 55 14 91 18 157 3 34 6 66 8 70 21 42 15 691 -7 814 -2
13 -6 44 -9 69 -7 66 -18 132 -32 198 -3 15 -7 36 -9 47 -1 11 -3 20 -5 20 -1
0 -3 9 -5 20 -11 64 -18 92 -26 107 -5 9 -8 21 -8 25 1 4 0 15 -3 23 -3 8 -12
35 -19 60 -7 25 -13 47 -14 50 -1 3 -5 19 -10 35 -4 17 -12 36 -18 43 -5 6 -7
12 -4 12 5 0 -3 23 -32 95 -5 11 -13 31 -19 45 -5 14 -23 54 -39 90 -17 36
-33 75 -37 88 -4 12 -12 22 -17 22 -5 0 -9 7 -9 15 0 15 -30 71 -90 170 -20
33 -43 71 -51 85 -8 14 -16 27 -19 30 -3 3 -27 35 -53 72 -26 36 -54 73 -62
82 -8 8 -15 17 -15 20 0 7 -33 45 -116 132 -33 35 -59 64 -56 64 3 0 -6 9 -19
21 -33 28 -139 121 -154 137 -8 6 -16 12 -20 12 -3 0 -16 9 -28 21 -47 44
-294 200 -357 225 -8 3 -33 14 -55 24 -93 42 -191 78 -220 81 -5 1 -18 5 -27
10 -9 5 -34 12 -55 15 -21 3 -41 8 -46 11 -8 5 -16 7 -142 27 -66 11 -149 14
-310 11 -121 -2 -233 -6 -250 -9 -16 -3 -50 -8 -75 -11 -88 -10 -140 -20 -280
-50 -8 -2 -15 -4 -15 -5 0 -1 -11 -3 -25 -6 -14 -2 -32 -7 -40 -11 -18 -7 -38
-12 -65 -16 -11 -2 -31 -9 -43 -16 -13 -7 -26 -10 -29 -7 -4 3 -11 2 -17 -3
-6 -4 -36 -16 -66 -27 -30 -10 -61 -22 -68 -27 -7 -6 -15 -7 -18 -4 -4 3 -13
0 -20 -8 -8 -8 -21 -12 -29 -9 -8 4 -15 1 -15 -4 0 -8 -38 -28 -47 -24 -10 3
-338 -172 -364 -194 -8 -8 -19 -14 -23 -14 -4 0 -34 -18 -66 -40 -32 -22 -62
-40 -65 -40 -3 0 -17 -12 -31 -27 -14 -16 -28 -27 -30 -26 -6 4 -94 -60 -94
-69 0 -4 -6 -8 -14 -8 -8 0 -22 -10 -30 -22 -9 -12 -16 -18 -16 -13 0 6 -11
-2 -24 -17 -13 -16 -26 -28 -29 -28 -3 0 -17 -10 -30 -22 -104 -98 -150 -138
-157 -138 -5 0 -12 -9 -15 -20 -3 -11 -10 -20 -15 -20 -7 0 -80 -68 -80 -75 0
-1 -22 -25 -48 -53 -56 -58 -105 -115 -144 -163 -14 -19 -35 -44 -45 -56 -11
-12 -28 -34 -39 -48 -10 -15 -25 -33 -31 -40 -7 -8 -13 -16 -13 -19 0 -3 -10
-17 -23 -32 -12 -14 -20 -27 -17 -28 3 -1 -4 -11 -14 -22 -11 -10 -35 -43 -55
-74 -25 -39 -36 -50 -39 -37 -2 9 -8 17 -13 17 -5 0 -9 5 -9 11 0 12 -80 133
-92 137 -4 2 -8 9 -8 15 0 12 -10 25 -92 127 -27 33 -48 62 -48 66 0 4 -8 14
-18 23 -9 9 -38 41 -64 71 -25 30 -69 78 -96 107 -28 28 -48 54 -45 57 4 3 2
6 -4 6 -6 0 -50 38 -98 85 -49 47 -90 85 -92 85 -2 0 -37 28 -77 63 -108 91
-147 122 -162 125 -8 2 -14 8 -14 13 0 5 -7 9 -15 9 -8 0 -15 4 -15 8 0 9
-188 135 -202 136 -4 1 -15 8 -25 16 -20 16 -278 147 -358 181 -83 35 -156 63
-165 64 -3 1 -41 13 -85 27 -44 14 -100 32 -125 38 -43 12 -55 15 -101 25 -11
2 -28 6 -37 9 -9 3 -34 8 -56 12 -21 3 -48 8 -60 10 -124 25 -314 41 -508 42
-102 0 -188 -1 -190 -3z"/>
</g>
</svg>
