<svg width="52" height="265" viewBox="0 0 52 265" fill="none" xmlns="http://www.w3.org/2000/svg">
<path d="M28.2 232.444L26.4 232.084L26.4 228.484L22.8 227.764L22.8 231.244L21 230.884L21 227.404L16.2 226.444L16.2 224.404L21 225.364L21 221.284L16.2 220.324L16.2 218.284L21 219.244L21 215.644L22.8 216.004L22.8 219.604L26.4 220.324L26.4 216.844L28.2 217.204L28.2 220.684L33 221.644L33 223.684L28.2 222.724L28.2 226.804L33 227.764L33 229.804L28.2 228.844L28.2 232.444ZM26.4 226.444L26.4 222.364L22.8 221.644L22.8 225.724L26.4 226.444ZM21.48 213.73L21.48 211.33L26.04 211.33L26.04 205.69L21.48 205.69L21.48 203.29L33 203.29L33 205.69L28.2 205.69L28.2 211.33L33 211.33L33 213.73L21.48 213.73ZM33.24 196.925C33.24 197.501 33.152 198.029 32.976 198.509C32.784 198.973 32.536 199.373 32.232 199.709C31.928 200.045 31.576 200.309 31.176 200.501C30.76 200.677 30.328 200.765 29.88 200.765C28.92 200.765 28.128 200.461 27.504 199.853C26.864 199.245 26.456 198.429 26.28 197.405L25.56 193.205L25.512 193.205C24.936 193.205 24.44 193.429 24.024 193.877C23.608 194.309 23.4 194.885 23.4 195.605C23.4 196.053 23.48 196.461 23.64 196.829C23.8 197.197 23.976 197.517 24.168 197.789C24.408 198.093 24.672 198.365 24.96 198.605L23.4 200.165C23 199.845 22.64 199.461 22.32 199.013C22.048 198.629 21.8 198.157 21.576 197.597C21.352 197.021 21.24 196.357 21.24 195.605C21.24 194.885 21.352 194.229 21.576 193.637C21.8 193.045 22.112 192.541 22.512 192.125C22.912 191.709 23.384 191.389 23.928 191.165C24.472 190.925 25.056 190.805 25.68 190.805L33 190.805L33 193.205L31.368 193.205L31.368 193.229C31.72 193.485 32.032 193.789 32.304 194.141C32.528 194.461 32.744 194.853 32.952 195.317C33.144 195.765 33.24 196.301 33.24 196.925ZM28.08 196.565C28.192 197.173 28.392 197.629 28.68 197.933C28.952 198.221 29.272 198.365 29.64 198.365C30.056 198.365 30.424 198.197 30.744 197.861C31.048 197.525 31.2 197.053 31.2 196.445C31.2 195.997 31.12 195.581 30.96 195.197C30.784 194.797 30.544 194.453 30.24 194.165C29.936 193.861 29.584 193.629 29.184 193.469C28.768 193.293 28.32 193.205 27.84 193.205L27.48 193.205L28.08 196.565ZM30.72 188.297C30.336 187.945 29.864 187.625 29.304 187.337C28.824 187.097 28.216 186.881 27.48 186.689C26.744 186.481 25.864 186.377 24.84 186.377L21.48 186.377L21.48 177.977L30.72 177.977L30.72 176.297L35.88 176.297L35.88 178.697L33 178.697L33 186.737L35.88 186.737L35.88 189.137L30.72 189.137L30.72 188.297ZM30.72 185.777L30.72 180.377L23.76 180.377L23.76 183.977L24.84 183.977C25.864 183.977 26.744 184.073 27.48 184.265C28.216 184.441 28.824 184.641 29.304 184.865C29.864 185.137 30.328 185.441 30.696 185.777L30.72 185.777ZM33.24 168.864C33.24 169.696 33.088 170.48 32.784 171.216C32.464 171.952 32.04 172.592 31.512 173.136C30.968 173.664 30.328 174.088 29.592 174.408C28.856 174.712 28.072 174.864 27.24 174.864C26.392 174.864 25.608 174.712 24.888 174.408C24.152 174.088 23.52 173.664 22.992 173.136C22.448 172.592 22.024 171.952 21.72 171.216C21.4 170.48 21.24 169.696 21.24 168.864C21.24 168.016 21.4 167.232 21.72 166.512C22.024 165.776 22.448 165.144 22.992 164.616C23.52 164.072 24.152 163.648 24.888 163.344C25.608 163.024 26.392 162.864 27.24 162.864C28.072 162.864 28.856 163.024 29.592 163.344C30.328 163.648 30.968 164.072 31.512 164.616C32.04 165.144 32.464 165.776 32.784 166.512C33.088 167.232 33.24 168.016 33.24 168.864ZM30.96 168.864C30.96 168.352 30.872 167.88 30.696 167.448C30.504 167 30.248 166.616 29.928 166.296C29.592 165.976 29.2 165.728 28.752 165.552C28.288 165.36 27.784 165.264 27.24 165.264C26.696 165.264 26.2 165.36 25.752 165.552C25.288 165.728 24.896 165.976 24.576 166.296C24.24 166.616 23.984 167 23.808 167.448C23.616 167.88 23.52 168.352 23.52 168.864C23.52 169.376 23.616 169.856 23.808 170.304C23.984 170.736 24.24 171.112 24.576 171.432C24.896 171.752 25.288 172.008 25.752 172.2C26.2 172.376 26.696 172.464 27.24 172.464C27.784 172.464 28.288 172.376 28.752 172.2C29.2 172.008 29.592 171.752 29.928 171.432C30.248 171.112 30.504 170.736 30.696 170.304C30.872 169.856 30.96 169.376 30.96 168.864ZM21.48 149.782L33 149.782L33 152.182L23.76 152.182L23.76 157.822L33 157.822L33 160.222L21.48 160.222L21.48 149.782ZM33.24 141.138C33.24 141.97 33.088 142.754 32.784 143.49C32.464 144.226 32.04 144.866 31.512 145.41C30.968 145.938 30.328 146.362 29.592 146.682C28.856 146.986 28.072 147.138 27.24 147.138C26.392 147.138 25.608 146.986 24.888 146.682C24.152 146.362 23.52 145.938 22.992 145.41C22.448 144.866 22.024 144.226 21.72 143.49C21.4 142.754 21.24 141.97 21.24 141.138C21.24 140.29 21.4 139.506 21.72 138.786C22.024 138.05 22.448 137.418 22.992 136.89C23.52 136.346 24.152 135.922 24.888 135.618C25.608 135.298 26.392 135.138 27.24 135.138C28.072 135.138 28.856 135.298 29.592 135.618C30.328 135.922 30.968 136.346 31.512 136.89C32.04 137.418 32.464 138.05 32.784 138.786C33.088 139.506 33.24 140.29 33.24 141.138ZM30.96 141.138C30.96 140.626 30.872 140.154 30.696 139.722C30.504 139.274 30.248 138.89 29.928 138.57C29.592 138.25 29.2 138.002 28.752 137.826C28.288 137.634 27.784 137.538 27.24 137.538C26.696 137.538 26.2 137.634 25.752 137.826C25.288 138.002 24.896 138.25 24.576 138.57C24.24 138.89 23.984 139.274 23.808 139.722C23.616 140.154 23.52 140.626 23.52 141.138C23.52 141.65 23.616 142.13 23.808 142.578C23.984 143.01 24.24 143.386 24.576 143.706C24.896 144.026 25.288 144.282 25.752 144.474C26.2 144.65 26.696 144.738 27.24 144.738C27.784 144.738 28.288 144.65 28.752 144.474C29.2 144.282 29.592 144.026 29.928 143.706C30.248 143.386 30.504 143.01 30.696 142.578C30.872 142.13 30.96 141.65 30.96 141.138ZM21.48 132.496L21.48 124.336L23.76 124.336L23.76 130.096L33 130.096L33 132.496L21.48 132.496ZM33.24 117.138C33.24 117.97 33.088 118.754 32.784 119.49C32.464 120.226 32.04 120.866 31.512 121.41C30.968 121.938 30.328 122.362 29.592 122.682C28.856 122.986 28.072 123.138 27.24 123.138C26.392 123.138 25.608 122.986 24.888 122.682C24.152 122.362 23.52 121.938 22.992 121.41C22.448 120.866 22.024 120.226 21.72 119.49C21.4 118.754 21.24 117.97 21.24 117.138C21.24 116.29 21.4 115.506 21.72 114.786C22.024 114.05 22.448 113.418 22.992 112.89C23.52 112.346 24.152 111.922 24.888 111.618C25.608 111.298 26.392 111.138 27.24 111.138C28.072 111.138 28.856 111.298 29.592 111.618C30.328 111.922 30.968 112.346 31.512 112.89C32.04 113.418 32.464 114.05 32.784 114.786C33.088 115.506 33.24 116.29 33.24 117.138ZM30.96 117.138C30.96 116.626 30.872 116.154 30.696 115.722C30.504 115.274 30.248 114.89 29.928 114.57C29.592 114.25 29.2 114.002 28.752 113.826C28.288 113.634 27.784 113.538 27.24 113.538C26.696 113.538 26.2 113.634 25.752 113.826C25.288 114.002 24.896 114.25 24.576 114.57C24.24 114.89 23.984 115.274 23.808 115.722C23.616 116.154 23.52 116.626 23.52 117.138C23.52 117.65 23.616 118.13 23.808 118.578C23.984 119.01 24.24 119.386 24.576 119.706C24.896 120.026 25.288 120.282 25.752 120.474C26.2 120.65 26.696 120.738 27.24 120.738C27.784 120.738 28.288 120.65 28.752 120.474C29.2 120.282 29.592 120.026 29.928 119.706C30.248 119.386 30.504 119.01 30.696 118.578C30.872 118.13 30.96 117.65 30.96 117.138ZM33 108.496L21.48 108.496L21.48 103.096C21.48 102.488 21.568 101.952 21.744 101.488C21.904 101.008 22.128 100.608 22.416 100.288C22.704 99.9518 23.04 99.6958 23.424 99.5198C23.792 99.3438 24.184 99.2558 24.6 99.2558C25.016 99.2558 25.368 99.3278 25.656 99.4718C25.944 99.6158 26.176 99.7758 26.352 99.9518C26.56 100.16 26.728 100.392 26.856 100.648L26.904 100.648C27.032 100.296 27.224 99.9838 27.48 99.7118C27.688 99.4718 27.968 99.2558 28.32 99.0638C28.656 98.8718 29.096 98.7758 29.64 98.7758C30.088 98.7758 30.52 98.8718 30.936 99.0638C31.336 99.2558 31.688 99.5278 31.992 99.8798C32.296 100.232 32.544 100.664 32.736 101.176C32.912 101.672 33 102.232 33 102.856L33 108.496ZM30.84 102.976C30.84 102.432 30.704 102.016 30.432 101.728C30.16 101.44 29.816 101.296 29.4 101.296C28.984 101.296 28.64 101.44 28.368 101.728C28.096 102.016 27.96 102.432 27.96 102.976L27.96 106.096L30.84 106.096L30.84 102.976ZM26.04 103.216C26.04 102.736 25.936 102.376 25.728 102.136C25.504 101.896 25.208 101.776 24.84 101.776C24.472 101.776 24.184 101.896 23.976 102.136C23.752 102.376 23.64 102.736 23.64 103.216L23.64 106.096L26.04 106.096L26.04 103.216ZM33.24 90.8642C33.24 91.6962 33.088 92.4802 32.784 93.2162C32.464 93.9522 32.04 94.5922 31.512 95.1362C30.968 95.6642 30.328 96.0882 29.592 96.4082C28.856 96.7122 28.072 96.8642 27.24 96.8642C26.392 96.8642 25.608 96.7122 24.888 96.4082C24.152 96.0882 23.52 95.6642 22.992 95.1362C22.448 94.5922 22.024 93.9522 21.72 93.2162C21.4 92.4802 21.24 91.6962 21.24 90.8642C21.24 90.0162 21.4 89.2322 21.72 88.5122C22.024 87.7762 22.448 87.1442 22.992 86.6162C23.52 86.0722 24.152 85.6482 24.888 85.3442C25.608 85.0242 26.392 84.8642 27.24 84.8642C28.072 84.8642 28.856 85.0242 29.592 85.3442C30.328 85.6482 30.968 86.0722 31.512 86.6162C32.04 87.1442 32.464 87.7762 32.784 88.5122C33.088 89.2322 33.24 90.0162 33.24 90.8642ZM30.96 90.8642C30.96 90.3522 30.872 89.8802 30.696 89.4482C30.504 89.0002 30.248 88.6162 29.928 88.2962C29.592 87.9762 29.2 87.7282 28.752 87.5522C28.288 87.3602 27.784 87.2642 27.24 87.2642C26.696 87.2642 26.2 87.3602 25.752 87.5522C25.288 87.7282 24.896 87.9762 24.576 88.2962C24.24 88.6162 23.984 89.0002 23.808 89.4482C23.616 89.8802 23.52 90.3522 23.52 90.8642C23.52 91.3762 23.616 91.8562 23.808 92.3042C23.984 92.7362 24.24 93.1122 24.576 93.4322C24.896 93.7522 25.288 94.0082 25.752 94.2002C26.2 94.3762 26.696 94.4642 27.24 94.4642C27.784 94.4642 28.288 94.3762 28.752 94.2002C29.2 94.0082 29.592 93.7522 29.928 93.4322C30.248 93.1122 30.504 92.7362 30.696 92.3042C30.872 91.8562 30.96 91.3762 30.96 90.8642ZM21.48 82.2223L21.48 79.8223L23.112 79.8223L23.112 79.7983C22.76 79.5423 22.448 79.2223 22.176 78.8383C21.936 78.5183 21.72 78.1103 21.528 77.6143C21.336 77.1183 21.24 76.5343 21.24 75.8623C21.24 75.1423 21.392 74.4543 21.696 73.7983C21.984 73.1423 22.4 72.5743 22.944 72.0943C23.472 71.5983 24.104 71.2063 24.84 70.9183C25.576 70.6143 26.376 70.4623 27.24 70.4623C28.104 70.4623 28.904 70.6143 29.64 70.9183C30.376 71.2063 31.016 71.5983 31.56 72.0943C32.088 72.5743 32.504 73.1423 32.808 73.7983C33.096 74.4543 33.24 75.1423 33.24 75.8623C33.24 76.5343 33.144 77.1183 32.952 77.6143C32.744 78.1103 32.528 78.5183 32.304 78.8383C32.032 79.2223 31.72 79.5423 31.368 79.7983L31.368 79.8223L38.04 79.8223L38.04 82.2223L21.48 82.2223ZM27.24 79.8223C27.784 79.8223 28.288 79.7343 28.752 79.5583C29.2 79.3663 29.592 79.1183 29.928 78.8143C30.248 78.4943 30.504 78.1263 30.696 77.7103C30.872 77.2783 30.96 76.8223 30.96 76.3423C30.96 75.8623 30.872 75.4143 30.696 74.9983C30.504 74.5663 30.248 74.1983 29.928 73.8943C29.592 73.5743 29.2 73.3263 28.752 73.1503C28.288 72.9583 27.784 72.8623 27.24 72.8623C26.696 72.8623 26.2 72.9583 25.752 73.1503C25.288 73.3263 24.896 73.5743 24.576 73.8943C24.24 74.1983 23.984 74.5663 23.808 74.9983C23.616 75.4143 23.52 75.8623 23.52 76.3423C23.52 76.8223 23.616 77.2783 23.808 77.7103C23.984 78.1263 24.24 78.4943 24.576 78.8143C24.896 79.1183 25.288 79.3663 25.752 79.5583C26.2 79.7343 26.696 79.8223 27.24 79.8223ZM21.48 65.4317L29.112 65.4317L29.112 65.3837L21.48 59.4317L21.48 57.2717L33 57.2717L33 59.6717L25.368 59.6717L25.368 59.7197L33 65.6717L33 67.8317L21.48 67.8317L21.48 65.4317ZM21.48 55.1098L21.48 44.7898L23.76 44.7898L23.76 48.7498L33 48.7498L33 51.1498L23.76 51.1498L23.76 55.1098L21.48 55.1098ZM33 42.6364L21.48 42.6364L21.48 40.2364L25.08 40.2364L25.08 37.5964C25.08 36.9084 25.184 36.2924 25.392 35.7484C25.584 35.1884 25.856 34.7164 26.208 34.3324C26.56 33.9484 26.976 33.6604 27.456 33.4684C27.936 33.2604 28.464 33.1564 29.04 33.1564C29.616 33.1564 30.144 33.2604 30.624 33.4684C31.104 33.6604 31.52 33.9484 31.872 34.3324C32.224 34.7164 32.504 35.1884 32.712 35.7484C32.904 36.2924 33 36.9084 33 37.5964L33 42.6364ZM27.24 40.2364L30.84 40.2364L30.84 37.5964C30.84 36.9244 30.68 36.4204 30.36 36.0844C30.024 35.7324 29.584 35.5564 29.04 35.5564C28.496 35.5564 28.064 35.7324 27.744 36.0844C27.408 36.4204 27.24 36.9244 27.24 37.5964L27.24 40.2364Z" fill="#2C2D2E"/>
<rect x="1" y="264" width="263" height="50" rx="15" transform="rotate(-90 1 264)" stroke="#2C2D2E" stroke-width="2"/>
</svg>
