<svg width="15" height="24" viewBox="0 0 15 24" fill="none" xmlns="http://www.w3.org/2000/svg">
<path d="M7.24891 12.3847C10.7685 12.3847 13.6377 9.60374 13.6377 6.19237C13.6377 2.78101 10.7685 0 7.24891 0C3.72935 0 0.86014 2.78101 0.86014 6.19237C0.86014 9.60374 3.72935 12.3847 7.24891 12.3847ZM7.24891 3.63385C8.70264 3.63385 9.88858 4.78333 9.88858 6.19237C9.88858 7.60142 8.70264 8.7509 7.24891 8.7509C5.79518 8.7509 4.60924 7.60142 4.60924 6.19237C4.60924 4.78333 5.79518 3.63385 7.24891 3.63385Z" fill="black"/>
<path d="M9.81208 17.4276C11.1128 17.1309 12.3752 16.6489 13.5229 15.9444C14.4028 15.4252 14.6706 14.2758 14.0968 13.4229C13.5612 12.5701 12.3752 12.3105 11.4953 12.8667C8.89393 14.4612 5.48914 14.4612 2.88772 12.8667C2.00783 12.3476 0.860149 12.5701 0.286308 13.4229C-0.249278 14.2758 -0.0197411 15.3882 0.86015 15.9444C2.00783 16.6489 3.27028 17.1309 4.57099 17.4276L1.08969 20.9131C0.36282 21.6176 0.36282 22.7671 1.08969 23.4716C1.47225 23.8424 1.93132 23.9907 2.42865 23.9907C2.92598 23.9907 3.38505 23.8053 3.76761 23.4716L7.28718 20.0602L10.8067 23.4716C11.5336 24.1761 12.7195 24.1761 13.4464 23.4716C14.1733 22.7671 14.1733 21.6176 13.4464 20.9131L9.81208 17.4276Z" fill="black"/>
</svg>
