<svg width="44" height="40" viewBox="0 0 44 40" fill="none" xmlns="http://www.w3.org/2000/svg">
<g filter="url(#filter0_d_2_638)">
<path d="M24.4618 14.3408C24.3325 13.8772 23.8649 13.6071 23.4122 13.7396C22.9595 13.8721 22.6959 14.351 22.8252 14.8147C23.0938 15.7981 22.8252 16.8477 22.1238 17.5712L16.3732 23.4613C15.2987 24.5619 13.5576 24.5619 12.4781 23.4613C11.4036 22.3607 11.4036 20.5774 12.4781 19.4717L18.2287 13.5816C18.6068 13.1944 19.0843 12.9294 19.6017 12.8173C20.0593 12.7256 20.3578 12.2671 20.2683 11.7932C20.1787 11.3193 19.731 11.0187 19.2684 11.1104C19.2634 11.1104 19.2584 11.1104 19.2535 11.1155C18.4078 11.299 17.6367 11.727 17.0298 12.3537L11.2792 18.2438C9.55306 20.0373 9.57793 22.9263 11.329 24.6892C13.0601 26.4369 15.8409 26.4369 17.577 24.6892L23.3276 18.7992C24.4618 17.6323 24.8946 15.9305 24.4618 14.3408Z" fill="black"/>
<path d="M32.4461 7.33499C31.6104 6.47899 30.4762 6.00004 29.2972 6.00004C28.1183 5.99494 26.9841 6.47899 26.1483 7.33499L20.4027 13.2251C19.2635 14.3919 18.8307 16.0988 19.2635 17.6834C19.3929 18.1471 19.8605 18.4171 20.3132 18.2847C20.7658 18.1522 21.0295 17.6732 20.9002 17.2096C20.6315 16.2262 20.9002 15.1766 21.6016 14.453L27.3522 8.56294C28.4267 7.46237 30.1678 7.46237 31.2473 8.56294C32.3218 9.66352 32.3218 11.4468 31.2473 12.5525L25.4967 18.4426C25.1186 18.8298 24.641 19.0948 24.1187 19.2069C23.661 19.3037 23.3626 19.7674 23.4621 20.2361C23.5466 20.6387 23.8949 20.9291 24.2978 20.9291C24.3575 20.9291 24.4172 20.924 24.4719 20.9087C25.3176 20.7253 26.0886 20.2973 26.6955 19.6706L32.4461 13.7805C34.1823 12.0022 34.1823 9.11833 32.4461 7.33499Z" fill="black"/>
</g>
<defs>
<filter id="filter0_d_2_638" x="0" y="0" width="43.7482" height="40" filterUnits="userSpaceOnUse" color-interpolation-filters="sRGB">
<feFlood flood-opacity="0" result="BackgroundImageFix"/>
<feColorMatrix in="SourceAlpha" type="matrix" values="0 0 0 0 0 0 0 0 0 0 0 0 0 0 0 0 0 0 127 0" result="hardAlpha"/>
<feOffset dy="4"/>
<feGaussianBlur stdDeviation="5"/>
<feColorMatrix type="matrix" values="0 0 0 0 0 0 0 0 0 0 0 0 0 0 0 0 0 0 0.15 0"/>
<feBlend mode="normal" in2="BackgroundImageFix" result="effect1_dropShadow_2_638"/>
<feBlend mode="normal" in="SourceGraphic" in2="effect1_dropShadow_2_638" result="shape"/>
</filter>
</defs>
</svg>
