<svg width="24" height="24" viewBox="0 0 24 24" fill="none" xmlns="http://www.w3.org/2000/svg">
<path fill-rule="evenodd" clip-rule="evenodd" d="M4.48651 12.0884C3.49501 11.5334 2.35351 10.8944 1.07701 10.1789C0.112508 9.63891 -0.148492 8.46441 0.132008 7.76391C0.414008 7.06491 1.07101 6.52941 1.89001 6.32991C7.03951 5.08191 16.4505 2.79891 21.477 1.58091C22.164 1.41441 22.974 1.49241 23.478 1.93191C24.138 2.50791 24.012 3.39741 23.8215 3.99741C22.425 8.38341 19.9035 16.3094 18.4725 20.8049C18.2445 21.5204 17.6745 22.1654 16.887 22.4114C15.702 22.7699 14.7795 22.0319 14.2995 21.4214C13.362 20.2274 12.4965 19.1219 11.748 18.1619L7.07251 21.6914C6.58351 22.0604 5.92801 22.1204 5.38051 21.8474C4.83151 21.5744 4.48651 21.0149 4.48651 20.4029V12.0884ZM9.37951 14.4974C9.55201 14.1224 9.80251 13.7864 10.116 13.5149C11.3895 12.4109 14.9415 9.32841 17.271 7.30791C17.394 7.20141 17.4165 7.01991 17.325 6.88491C17.232 6.75141 17.055 6.70791 16.911 6.78441C14.0145 8.33391 9.43501 10.7834 7.76401 11.6789C7.36801 11.8904 7.11301 12.2939 7.09201 12.7424C7.03051 14.0084 6.90301 16.6634 6.81751 18.4574C6.80851 18.6269 6.92101 18.7769 7.08601 18.8159C7.24951 18.8564 7.41751 18.7739 7.48801 18.6209C8.11201 17.2634 8.95801 15.4184 9.37951 14.4974Z" fill="black"/>
</svg>
