<svg width="28" height="28" viewBox="0 0 28 28" fill="none" xmlns="http://www.w3.org/2000/svg">
<g clip-path="url(#clip0_2_624)">
<path fill-rule="evenodd" clip-rule="evenodd" d="M14.5914 28H13.4254C7.0952 28 3.9312 28 1.9656 26.0344C0 24.0688 0 20.9048 0 14.5914V13.4086C0 7.09408 0 3.93121 1.9656 1.96561C3.9312 5.67436e-06 7.0952 0 13.4254 0H14.5914C20.9205 0 24.1024 5.67436e-06 26.0512 1.96561C28 3.93121 28 7.09632 28 13.4086V14.5914L28 14.7505C28.0001 20.9581 28.0002 24.0854 26.0512 26.0344C24.0856 28 20.9205 28 14.5914 28ZM4.73047 8.5293C4.87943 15.8082 8.71095 20.1885 15.0244 20.1885H15.3906V16.0243C17.6889 16.2573 19.4047 17.9731 20.1047 20.1885H23.4188C22.5194 16.8744 20.1876 15.0421 18.7383 14.3421C20.1876 13.4763 22.2361 11.3775 22.7188 8.5293H19.7049C19.071 10.8443 17.1894 12.9432 15.3906 13.1426V8.5293H12.3252V16.6079C10.4604 16.1453 8.02775 13.8762 7.92807 8.5293H4.73047Z" fill="black"/>
</g>
<defs>
<clipPath id="clip0_2_624">
<rect width="28" height="28" fill="white"/>
</clipPath>
</defs>
</svg>
